<?xml version="1.0" encoding="UTF-8"?>
<!DOCTYPE svg PUBLIC "-//W3C//DTD SVG 1.1//EN" "http://www.w3.org/Graphics/SVG/1.1/DTD/svg11.dtd">
<!-- Creator: CorelDRAW X7 -->
<svg xmlns="http://www.w3.org/2000/svg" xml:space="preserve" width="5mm" height="5mm" version="1.1" style="shape-rendering:geometricPrecision; text-rendering:geometricPrecision; image-rendering:optimizeQuality; fill-rule:evenodd; clip-rule:evenodd"
viewBox="0 0 500 500"
 xmlns:xlink="http://www.w3.org/1999/xlink">
 <defs>
  <style type="text/css">
   <![CDATA[
    .fil0 {fill:black}
   ]]>
  </style>
 </defs>
 <g id="Capa_x0020_1">
  <metadata id="CorelCorpID_0Corel-Layer"/>
  <path class="fil0" d="M432 65c0,-53 -51,-66 -90,-66l0 8c24,0 42,8 42,26 0,11 -8,27 -32,27 -18,0 -58,-11 -87,-21 -34,-14 -66,-24 -93,-24 -52,0 -90,39 -90,84 0,40 30,53 40,59l3 -6c-5,-5 -13,-10 -13,-26 0,-11 10,-29 37,-29 23,0 55,10 98,24 37,10 76,18 97,21l0 82 -39 34 0 3 39 34 0 114c-21,13 -45,16 -66,16 -39,0 -74,-11 -103,-42l109 -53 0 -183 -133 58c11,-34 40,-58 69,-74l-3 -8c-79,21 -150,95 -150,185 0,106 87,186 185,186 106,0 174,-85 174,-172l-5 0c-16,34 -40,66 -69,82l0 -109 43 -34 0 -3 -43 -34 0 -82c40,0 80,-27 80,-77z"/>
 </g>
</svg>
